#!OML:ASF E:/inclinewalkrobotboard/Project1/Captureday1/Session1/subject1.ASF
:FULLY-SPECIFIED
:DEGREES
226
root 0 0 0 1.8422121454945395 -10.852861934620554 0.8765141288672336
lowerback -0.2044823851302815 -1.6383839143831809 -2.7117654513557756
upperback -0.5860813549840793 -2.151611975260359 1.71039361092386
thorax -0.29802685559806763 -1.055194623677575 3.237002622217192
lowerneck -24.615315130088575 -1.6459361735477351 -7.850210175925959
upperneck 28.147080730302566 0.2951180044645362 2.0916226834110265
head 13.564722981081403 -0.5819761983408807 2.289848398148595
rclavicle -5.2617414611851546E-15 1.0569908824583514E-15
rhumerus -32.79543253047575 -4.985520564503984 -80.51778966168816
rradius 30.206935337351055
rwrist 19.95558520882975
rhand -17.408857084952604 8.812813330193466
rfingers 7.1250199999999335
rthumb 8.837846316249365 -21.00440962674166
lclavicle -1.6588439767143218E-15 9.070468903425532E-16
lhumerus -19.712220541887433 -3.265869433626958 90.64098918032086
lradius 64.68309856687995
lwrist 1.8892814135939413
lhand -28.711213388642264 20.950280637882166
lfingers 7.125020000000025
lthumb -2.0719805448741804 50.9395124585789
rfemur -24.4445962078798 -0.9507424155147692 20.51951959769046
rtibia 70.20433593613481
rfoot -4.3481796646114965 -6.905611258156441
rtoes 5.467869677252544
lfemur -5.087087568570237 -3.5184408050603246 -27.646141871893157
ltibia 23.323641970676903
lfoot -15.27930601095044 0.1989807985931229
ltoes 8.620486215052805
227
root 0 0 0 1.883365086817982 -10.86468547153234 0.9058478004789388
lowerback -0.2571656909709874 -1.668182621927584 -2.750537369354984
upperback -0.5511751353757551 -2.1912271834710064 1.7105963075608284
thorax -0.2321603771290206 -1.0775386891026988 3.2582894748518174
lowerneck -24.78192322299118 -1.6753062644362195 -7.927486046879447
upperneck 27.788496955321904 0.2441018226106344 2.2162382551092183
head 13.454687693809932 -0.5742395386935091 2.3293238407497854
rclavicle -4.9675104858014275E-15 9.322252844142394E-16
rhumerus -33.08940702493945 -5.1025213910754506 -80.13956027191551
rradius 29.925811397423107
rwrist 20.13882309742489
rhand -17.373254225662123 8.78298043347966
rfingers 7.125019999999935
rthumb 8.872348935614328 -21.026743105003447
lclavicle -2.0665007142234672E-15 5.31034255450124E-16
lhumerus -20.274939800643313 -4.405472145029099 91.04863463961043
lradius 64.89379810717614
lwrist 2.0195298239016863
lhand -28.781366772912996 20.969266823355518
lfingers 7.125020000000024
lthumb -2.144511009182767 50.96397936414258
rfemur -27.737954992688806 -0.7533558205774131 19.881907843230245
rtibia 64.83354609633216
rfoot -5.34112795356994 -7.531446558428624
rtoes 3.3060954399208518
lfemur -0.0625156543292944 -3.448319758152384 -29.324253210952072
ltibia 21.64735897820845
lfoot -18.256737774209018 0.1439543064533808
ltoes 5.854748183541792
228
root 0 0 0 1.9296560138198051 -10.91175763437295 0.9397364423342323
lowerback -0.3323395214310685 -1.7109654647926273 -2.780632228210963
upperback -0.51196983322162 -2.2479713518091318 1.7037595279436506
thorax -0.14750302019914752 -1.1086025045740695 3.266732863088501
lowerneck -25.00973344703768 -1.707193439687356 -7.998616481164744
upperneck 27.559005929624913 0.20466795478089972 2.2950156248778324
head 13.406406243045007 -0.5699911520086777 2.356082944572348
rclavicle -3.583967015207203E-15 8.27554797179956E-16
rhumerus -33.362782351670155 -5.0459777740989615 -79.72816056321737
rradius 29.623933168645966
rwrist 20.301015490956047
rhand -17.36971429435973 8.768300748686233
rfingers 7.125019999999938
rthumb 8.875728333739147 -21.031392754581855
lclavicle -1.8807977986418416E-15 5.688818475041731E-16
lhumerus -20.635926486982736 -5.6723195411748275 91.2748801972866
lradius 65.29350192026654
lwrist 2.272846184903482
lhand -28.774692010803605 21.13287145550789
lfingers 7.125020000000023
lthumb -2.144192746450882 51.140388319631825
rfemur -30.21625356939093 0.1730226844975622 18.37547907910102
rtibia 56.0863411677161
rfoot -5.503364182479194 -8.7352484158949
rtoes 0.7906356704598339
lfemur 3.6706652866329703 -3.2171877014801695 -30.33924148063232
ltibia 20.8357225751251
lfoot -19.879725517385523 -0.3725651522548876
ltoes 3.2220508215004013
229
root 0 0 0 1.976548749684187 -10.961428471270688 0.9726590253494771
lowerback -0.3986325915796096 -1.7539936657825193 -2.8038824434720464
upperback -0.4722172447795539 -2.304828886146235 1.6993078361796958
thorax -0.06584941897917296 -1.1398050583385197 3.2737687108698132
lowerneck -25.25677654411546 -1.7358036843443767 -8.053542785134468
upperneck 27.35055060213756 0.17477442103913043 2.350223049046881
head 13.37203366362974 -0.5651677767617453 2.3747813129931425
rclavicle -1.1574649454778712E-15 3.6432545229587364E-16
rhumerus -33.60996155834751 -4.767265668762411 -79.24737067732252
rradius 29.280315037093782
rwrist 20.40325217252164
rhand -17.409227831906893 8.800718587614295
rfingers 7.125019999999938
rthumb 8.83718084814428 -20.988099697354343
lclavicle -3.759557042488489E-16 5.702193613502382E-16
lhumerus -20.80343221979115 -6.901524214589764 91.34623864155422
lradius 65.81077418683701
lwrist 2.6086016097113682
lhand -28.723778592401622 21.49801110171072
lfingers 7.125020000000023
lthumb -2.0993330691751373 51.522257839771726
rfemur -32.30864434536807 1.7417011151380155 17.030487405505117
rtibia 44.159730112881874
rfoot -5.579112142550169 -10.533557024099846
rtoes -1.763103023259034
lfemur 7.6516415909201685 -3.023134688681245 -31.073254177793217
ltibia 19.8017800026928
lfoot -20.641808592940336 -1.238139590476437
ltoes 0.16334978770787778
230
root 0 0 0 2.0193982997781763 -10.994829019045632 1.025827781984481
lowerback -0.431665029797794 -1.7952457334320622 -2.8183715009554
upperback -0.44068674622734505 -2.360330414600755 1.7372843164722964
thorax -0.008221589212571434 -1.1701740397189 3.319913428048065
lowerneck -25.808599086778294 -1.7947511065673123 -8.054052548631747
upperneck 26.633442790498155 0.11674063232217369 2.435885374051474
head 13.214755495015437 -0.5574657878449061 2.3884858506138915
rclavicle 2.818358406102364E-15 -9.648634979725058E-16
rhumerus -33.881928602234446 -3.8702950191637804 -78.47808523338524
rradius 28.76064196691197
rwrist 20.41460690307145
rhand -17.57254385816523 8.930456213679097
rfingers 7.125019999999935
rthumb 8.678968812832968 -20.851020533780513
lclavicle 2.1099970696742897E-15 4.579813469043866E-16
lhumerus -20.70097926825049 -8.57216679916726 91.2587912494331
lradius 66.64459271484567
lwrist 3.1461361060029644
lhand -28.664189214695043 22.284418760578212
lfingers 7.1250200000000214
lthumb -2.0476489646411125 52.33177697134121
rfemur -33.00330434699182 4.286282273207996 17.501786792249337
rtibia 27.417862554518337
rfoot -6.834352630227822 -13.081816304511515
rtoes -3.805051776089347
lfemur 15.672112698787377 -3.213549463496401 -31.310821757042326
ltibia 19.80833860616071
lfoot -17.59614192345284 -4.121408343049519
ltoes -5.785901563737045
